<mxfile host="Drawpyo" modified="2024-06-12T13:21:20" agent="Python 3.11, Drawpyo 0.01" version="21.6.5" type="device">
  <diagram name="Page-1" id="140428180839056">
    <mxGraphModel dx="2037" dy="830" grid="1" gridSize="10" guides="1" toolTips="1" connect="1" arrows="1" fold="1" page="1" pageScale="1" pageWidth="850" pageHeight="1100" math="0" shadow="0">
      <root>
        <mxCell id="0" />
        <mxCell id="1" parent="0" />
        <mxCell id="140428181064912" value="FH状态" style="whiteSpace=wrap;rounded=0;fillColor=#fff2cc;strokeColor=#d6b656;dashed=0;" vertex="1" parent="1">
  <mxGeometry x="0" y="0" width="120" height="80" as="geometry" />
</mxCell>
        <mxCell id="140428181061904" value="Node 2" style="whiteSpace=wrap;rounded=0;fillColor=#d5e8d4;strokeColor=#82b366;dashed=0;" vertex="1" parent="1">
  <mxGeometry x="220" y="0" width="120" height="80" as="geometry" />
</mxCell>
        <mxCell id="140428181084816" value="小区状态" style="whiteSpace=wrap;rounded=0;fillColor=#fff2cc;strokeColor=#d6b656;dashed=0;" vertex="1" parent="1">
  <mxGeometry x="440" y="0" width="120" height="80" as="geometry" />
</mxCell>
        <mxCell id="140428181085520" value="Node 4" style="whiteSpace=wrap;rounded=0;dashed=0;" vertex="1" parent="1">
  <mxGeometry x="0" y="130" width="120" height="80" as="geometry" />
</mxCell>
        <mxCell id="140428181087696" value="FH状态" style="whiteSpace=wrap;rounded=0;dashed=0;" vertex="1" parent="1">
  <mxGeometry x="200" y="130" width="100" height="80" as="geometry" />
</mxCell>
        <mxCell id="140428181087952" value="小区状态" style="whiteSpace=wrap;rounded=0;dashed=0;" vertex="1" parent="1">
  <mxGeometry x="400" y="130" width="100" height="80" as="geometry" />
</mxCell>
        <mxCell id="140428181023952" value="RU状态" style="whiteSpace=wrap;rounded=0;dashed=0;" vertex="1" parent="1">
  <mxGeometry x="0" y="260" width="100" height="80" as="geometry" />
</mxCell>
        <mxCell id="140428181083856" value="ONU状态" style="whiteSpace=wrap;rounded=0;dashed=0;" vertex="1" parent="1">
  <mxGeometry x="200" y="260" width="100" height="80" as="geometry" />
</mxCell>
        <mxCell id="140428181088784" style="edgeStyle=orthogonalEdgeStyle;orthogonalLoop=1;rounded=0;jettySize=auto;entryX=0.5;entryY=0;entryDx=0;entryDy=0;" edge="1" parent="1" source="140428181064912" target="140428181084816" value="yes">
  <mxGeometry relative="1" as="geometry" />
</mxCell>
        <mxCell id="140428187524048" style="edgeStyle=orthogonalEdgeStyle;orthogonalLoop=1;rounded=0;jettySize=auto;entryX=0;entryY=0.5;entryDx=0;entryDy=0;" edge="1" parent="1" source="140428181064912" target="140428181061904" value="no">
  <mxGeometry relative="1" as="geometry" />
</mxCell>
        <mxCell id="140428181091280" style="edgeStyle=orthogonalEdgeStyle;orthogonalLoop=1;rounded=0;jettySize=auto;entryX=0.5;entryY=0;entryDx=0;entryDy=0;" edge="1" parent="1" source="140428181061904" target="140428181085520" value="yes">
  <mxGeometry relative="1" as="geometry" />
</mxCell>
      </root>
    </mxGraphModel>
  </diagram>
</mxfile>